<svg width="60" height="60" viewBox="0 0 60 60" fill="none" xmlns="http://www.w3.org/2000/svg">
<circle cx="30" cy="30" r="27.5" stroke="white" stroke-width="5"/>
<circle cx="30" cy="22.5" r="12.3404" stroke="white" stroke-width="5"/>
<path d="M48.0229 49.8488C46.8373 51.2953 45.8627 52.3997 43.8629 53.5021C41.4561 54.8288 37.4611 56.1839 29.9215 57.4646C22.3538 56.1758 18.4726 55.103 16.2037 53.9225C14.3612 52.9638 13.5684 51.9413 12.5764 50.0923C12.6363 49.3807 12.8125 48.7738 13.1064 48.2443C13.4714 47.5865 14.1046 46.8909 15.2548 46.2385C17.6562 44.8764 22.0868 43.8298 29.9202 43.8298C37.7389 43.8298 42.4104 44.8712 45.0445 46.2714C46.3225 46.9509 47.0512 47.6777 47.4702 48.3515C47.7519 48.8045 47.9347 49.299 48.0229 49.8488Z" stroke="white" stroke-width="5"/>
</svg>
